<svg xmlns="http://www.w3.org/2000/svg" width="1200" height="700" viewBox="0 0 1200 700"><rect width="1200" height="700" fill="#f7fbff"/><text x="40" y="58" font-family="Arial" font-size="32" font-weight="700" fill="#10243d">Systemarchitektur dab-touchscreen</text><rect x="45" y="245" width="220" height="150" rx="14" fill="#ffe6ea" stroke="#ef5b70" stroke-width="3"/><text x="90" y="300" font-family="Arial" font-size="25" font-weight="700" fill="#18283a">pFC + DAB</text><text x="74" y="338" font-family="Arial" font-size="20" fill="#18283a">Messung / Steuerung</text><text x="112" y="372" font-family="Arial" font-size="20" fill="#18283a">MQTT Publish</text><rect x="390" y="110" width="500" height="485" rx="18" fill="#eaf7ec" stroke="#48a65d" stroke-width="3"/><text x="545" y="150" font-family="Arial" font-size="28" font-weight="700" fill="#17351e">Raspberry Pi 4</text><text x="505" y="180" font-family="Arial" font-size="19" fill="#34583b">Raspberry Pi OS Bookworm</text><rect x="455" y="215" width="370" height="85" rx="12" fill="#fbe8eb" stroke="#e05a71" stroke-width="2"/><text x="555" y="252" font-family="Arial" font-size="24" font-weight="700" fill="#3c1b24">Mosquitto</text><text x="542" y="280" font-family="Arial" font-size="19" fill="#3c1b24">lokaler MQTT Broker</text><rect x="455" y="335" width="370" height="135" rx="12" fill="#dff4e8" stroke="#45a86b" stroke-width="2"/><text x="545" y="372" font-family="Arial" font-size="24" font-weight="700" fill="#183a27">Dashboard Service</text><g font-family="Arial" font-size="18" fill="#183a27"><text x="490" y="405">MQTT Client · Topic Mapping · Data Model</text><text x="505" y="435">History · Quality · Network Services</text></g><rect x="455" y="500" width="170" height="65" rx="10" fill="#e8efff" stroke="#6989d9"/><text x="497" y="540" font-family="Arial" font-size="20" fill="#203c78">SQLite</text><rect x="655" y="500" width="170" height="65" rx="10" fill="#e8efff" stroke="#6989d9"/><text x="680" y="540" font-family="Arial" font-size="20" fill="#203c78">NetworkManager</text><rect x="950" y="160" width="210" height="120" rx="14" fill="#e4f0ff" stroke="#4d8fe8" stroke-width="3"/><text x="1000" y="205" font-family="Arial" font-size="25" font-weight="700" fill="#183d70">7" Touch</text><text x="985" y="240" font-family="Arial" font-size="20" fill="#183d70">1024 × 600</text><rect x="950" y="330" width="210" height="100" rx="14" fill="#fff3d8" stroke="#dfaa3c" stroke-width="3"/><text x="1002" y="375" font-family="Arial" font-size="24" font-weight="700" fill="#684c14">USB SSD</text><text x="1012" y="406" font-family="Arial" font-size="19" fill="#684c14">100 GB</text><rect x="950" y="480" width="210" height="100" rx="14" fill="#e9f5ff" stroke="#5e9ccd" stroke-width="3"/><text x="1000" y="522" font-family="Arial" font-size="23" font-weight="700" fill="#174e78">Ethernet</text><text x="1012" y="555" font-family="Arial" font-size="19" fill="#174e78">+ WLAN</text><g stroke="#30679c" stroke-width="5" fill="none"><line x1="265" y1="320" x2="390" y2="320"/><polygon points="390,320 374,310 374,330" fill="#30679c"/><line x1="890" y1="220" x2="950" y2="220"/><polygon points="950,220 934,210 934,230" fill="#30679c"/><line x1="890" y1="380" x2="950" y2="380"/><polygon points="950,380 934,370 934,390" fill="#30679c"/><line x1="890" y1="530" x2="950" y2="530"/><polygon points="950,530 934,520 934,540" fill="#30679c"/></g><text x="292" y="302" font-family="Arial" font-size="19" fill="#30679c">MQTT</text><text x="40" y="655" font-family="Arial" font-size="18" fill="#4b6175">Klare Trennung von Broker, Datenmodell, GUI und Netzwerkdiensten; reale Topic-Namen werden später zentral gemappt.</text></svg>